<?xml version="1.0" encoding="UTF-8"?>
<!DOCTYPE svg PUBLIC "-//W3C//DTD SVG 1.1//EN" "http://www.w3.org/Graphics/SVG/1.1/DTD/svg11.dtd">
<!-- Creator: CorelDRAW 2019 (64-Bit) -->
<svg xmlns="http://www.w3.org/2000/svg" xml:space="preserve" width="2522px" height="2518px" version="1.1" style="shape-rendering:geometricPrecision; text-rendering:geometricPrecision; image-rendering:optimizeQuality; fill-rule:evenodd; clip-rule:evenodd"
viewBox="0 0 1424.19 1422.2"
 xmlns:xlink="http://www.w3.org/1999/xlink"
 xmlns:xodm="http://www.corel.com/coreldraw/odm/2003">
 <defs>
  <style type="text/css">
   <![CDATA[
    .fil0 {fill:#282829}
   ]]>
  </style>
 </defs>
 <g id="Layer_x0020_1">
  <metadata id="CorelCorpID_0Corel-Layer"/>
  <g id="_2443623243952">
   <path class="fil0" d="M658.31 1422.2l0 -798.65c-152.63,0 -276.35,140.54 -276.35,313.91 0,129.57 69.11,240.81 167.76,288.74l0 119.24c-162.16,-64.52 -276.62,-222.83 -276.62,-407.98 0,-242.45 196.55,-439 439,-439 242.45,0 438.99,196.55 438.99,439 0,185.15 -114.46,343.46 -276.61,407.98l0 -119.24c98.64,-47.93 167.76,-159.17 167.76,-288.74 0,-173.37 -123.73,-313.91 -276.36,-313.91l0 798.65 -107.57 0z"/>
   <polygon class="fil0" points="712.1,154.78 78.1,788.78 0,710.68 712.1,0 1424.19,710.68 1346.09,788.78 "/>
  </g>
 </g>
</svg>
