<?xml version="1.0" encoding="UTF-8"?>
<!DOCTYPE svg PUBLIC "-//W3C//DTD SVG 1.1//EN" "http://www.w3.org/Graphics/SVG/1.1/DTD/svg11.dtd">
<!-- Creator: CorelDRAW 2019 (64-Bit) -->
<svg xmlns="http://www.w3.org/2000/svg" xml:space="preserve" width="1024px" height="1024px" version="1.1" style="shape-rendering:geometricPrecision; text-rendering:geometricPrecision; image-rendering:optimizeQuality; fill-rule:evenodd; clip-rule:evenodd"
viewBox="0 0 1026.96 1026.96"
 xmlns:xlink="http://www.w3.org/1999/xlink"
 xmlns:xodm="http://www.corel.com/coreldraw/odm/2003">
 <defs>
  <style type="text/css">
   <![CDATA[
    .fil0 {fill:none}
    .fil1 {fill:#373435}
   ]]>
  </style>
 </defs>
 <g id="Layer_x0020_1">
  <metadata id="CorelCorpID_0Corel-Layer"/>
  <rect class="fil0" width="1026.96" height="1026.96"/>
  <path class="fil1" d="M991.06 476.58l-208.59 -361.27c-9.14,-22.84 -33.52,-36.9 -59.9,-36.9l-417.15 0c-26.39,0 -50.72,14.06 -67.96,36.9l-208.59 361.27c-9.15,22.84 -9.15,50.96 4.03,73.8l208.59 361.27c13.17,22.85 37.54,36.9 63.93,36.9l417.15 0c26.38,0 50.72,-14.05 63.93,-36.9l208.59 -361.27c13.18,-22.84 13.18,-50.96 -4.03,-73.8zm-163.95 206.1l-72.15 0c-4.68,0 -8.99,-2.5 -11.32,-6.53l-134.76 -233.41 -40.12 72.11 73.92 128.07c5.04,8.7 -1.25,19.61 -11.32,19.61l-72.15 0c-4.67,0 -8.98,-2.49 -11.32,-6.52l-29.36 -50.92 -28.24 50.72c-2.3,4.15 -6.69,6.72 -11.44,6.72l-71.51 0c-9.99,0 -16.27,-10.71 -11.44,-19.41l70.94 -127.46 -40.65 -70.42 -128.42 230.71c-2.3,4.15 -6.69,6.73 -11.44,6.73l-71.51 0c-9.99,0 -16.27,-10.72 -11.44,-19.42l171.13 -307.45 28.6 -51.45 9.55 -17.12c4.87,-8.78 17.44,-8.98 22.64,-0.4l43.18 71.71 38.6 66.87 40.12 -72.11 39.04 -70.1c4.95,-8.86 17.68,-8.98 22.76,-0.16l40.12 69.45 179.31 310.56c5.03,8.7 -1.25,19.62 -11.32,19.62l0 0z"/>
 </g>
</svg>
