<?xml version="1.0" encoding="UTF-8"?>
<!DOCTYPE svg PUBLIC "-//W3C//DTD SVG 1.1//EN" "http://www.w3.org/Graphics/SVG/1.1/DTD/svg11.dtd">
<!-- Creator: CorelDRAW 2019 (64-Bit) -->
<svg xmlns="http://www.w3.org/2000/svg" xml:space="preserve" width="2269px" height="2269px" version="1.1" style="shape-rendering:geometricPrecision; text-rendering:geometricPrecision; image-rendering:optimizeQuality; fill-rule:evenodd; clip-rule:evenodd"
viewBox="0 0 2147.61 2147.61"
 xmlns:xlink="http://www.w3.org/1999/xlink"
 xmlns:xodm="http://www.corel.com/coreldraw/odm/2003">
 <defs>
  <style type="text/css">
   <![CDATA[
    .fil0 {fill:none}
    .fil1 {fill:black;fill-rule:nonzero}
   ]]>
  </style>
 </defs>
 <g id="Layer_x0020_1">
  <metadata id="CorelCorpID_0Corel-Layer"/>
  <rect class="fil0" width="2147.61" height="2147.61"/>
  <polygon class="fil1" points="1603.64,1347.75 1409.09,1347.75 1357.23,1424.2 1454.46,1567.56 1645.76,1347.75 "/>
  <polygon class="fil1" points="1068.65,1849.21 1263.31,1849.21 1315.18,1772.78 1217.8,1629.48 1026.55,1849.21 "/>
  <path class="fil1" d="M2054.2 1918.34l-84.42 0 0 -11.25 109.37 0 0 -22.6 -100.06 0c-4.22,0 -8.38,0.64 -12.48,1.93 -4.1,1.29 -7.76,3.17 -10.99,5.62 -3.22,2.46 -5.85,5.46 -7.88,9 -2.03,3.54 -3.04,7.55 -3.04,12.05 0,4.16 0.87,8.02 2.6,11.55 1.74,3.54 4.06,6.58 6.96,9.12 2.89,2.54 6.23,4.52 9.99,5.93 3.77,1.42 7.68,2.13 11.73,2.13l85.66 0 0 10.99 -111.11 0 0 23.11 103.91 0c3.98,0 7.82,-0.71 11.55,-2.13 3.72,-1.41 7.01,-3.37 9.87,-5.87 2.85,-2.49 5.15,-5.47 6.89,-8.93 1.74,-3.45 2.61,-7.26 2.61,-11.43 0,-3.99 -0.81,-7.78 -2.42,-11.36 -1.62,-3.58 -3.81,-6.68 -6.58,-9.31 -2.78,-2.62 -6.07,-4.7 -9.87,-6.24 -3.81,-1.54 -7.91,-2.31 -12.29,-2.31z"/>
  <path class="fil1" d="M1818.69 1976.54l0 -67.45 21.6 47.34c1.24,2.75 2.65,5.44 4.22,8.06 1.57,2.62 3.33,4.93 5.28,6.93 1.94,2 4.14,3.62 6.58,4.87 2.44,1.25 5.15,1.88 8.13,1.88 3.23,0 6,-0.53 8.32,-1.57 2.31,-1.04 4.36,-2.52 6.14,-4.43 1.78,-1.91 3.37,-4.18 4.78,-6.81 1.41,-2.62 2.86,-5.55 4.35,-8.8l21.97 -48.34 0 67.7 22.22 0 0 -66.45c0,-3.33 -0.54,-6.54 -1.61,-9.62 -1.08,-3.08 -2.61,-5.81 -4.59,-8.18 -1.99,-2.37 -4.39,-4.27 -7.2,-5.68 -2.82,-1.42 -5.96,-2.13 -9.44,-2.13 -5.46,0 -10.1,1.46 -13.9,4.37 -3.81,2.92 -6.71,7.17 -8.7,12.74l-22.71 54.09 -20.74 -51.34c-1.07,-2.75 -2.4,-5.33 -3.97,-7.74 -1.57,-2.42 -3.39,-4.52 -5.46,-6.31 -2.07,-1.79 -4.37,-3.21 -6.89,-4.25 -2.52,-1.04 -5.28,-1.56 -8.26,-1.56 -3.14,0 -6.08,0.61 -8.81,1.81 -2.73,1.21 -5.09,2.84 -7.08,4.88 -1.98,2.04 -3.56,4.45 -4.71,7.24 -1.16,2.79 -1.74,5.77 -1.74,8.93l0 69.2 22.22 0.62z"/>
  <polygon class="fil1" points="1512.79,1883.74 1512.79,1907.22 1566.55,1907.22 1566.55,1975.92 1589.64,1975.92 1589.64,1907.22 1643.02,1907.22 1643.02,1883.74 "/>
  <path class="fil1" d="M1469.22 1918.34l-84.42 0 0 -11.25 109.37 0 0 -22.6 -100.06 0c-4.22,0 -8.38,0.64 -12.48,1.93 -4.1,1.29 -7.76,3.17 -10.99,5.62 -3.22,2.46 -5.85,5.46 -7.88,9 -2.03,3.54 -3.04,7.55 -3.04,12.05 0,4.16 0.87,8.02 2.61,11.55 1.74,3.54 4.05,6.58 6.95,9.12 2.9,2.54 6.23,4.52 9.99,5.93 3.77,1.42 7.68,2.13 11.73,2.13l85.66 0 0 10.99 -111.11 0 0 23.11 103.92 0c3.97,0 7.82,-0.71 11.54,-2.13 3.72,-1.41 7.02,-3.37 9.87,-5.87 2.86,-2.49 5.15,-5.47 6.89,-8.93 1.74,-3.45 2.61,-7.26 2.61,-11.43 0,-3.99 -0.81,-7.78 -2.42,-11.36 -1.62,-3.58 -3.81,-6.68 -6.58,-9.31 -2.78,-2.62 -6.07,-4.7 -9.87,-6.24 -3.81,-1.54 -7.91,-2.31 -12.29,-2.31z"/>
  <polygon class="fil1" points="1273.56,1948.69 1273.56,1975.92 1296.53,1975.92 1296.53,1948.69 1347.31,1883.74 1318.38,1883.74 1284.49,1925.83 1250.84,1883.74 1221.42,1883.74 "/>
  <path class="fil1" d="M1177.85 1918.34l-84.42 0 0 -11.25 109.37 0 0 -22.6 -100.06 0c-4.22,0 -8.38,0.64 -12.48,1.93 -4.1,1.29 -7.76,3.17 -10.99,5.62 -3.22,2.46 -5.85,5.46 -7.88,9 -2.03,3.54 -3.04,7.55 -3.04,12.05 0,4.16 0.87,8.02 2.6,11.55 1.74,3.54 4.06,6.58 6.96,9.12 2.89,2.54 6.23,4.52 9.99,5.93 3.77,1.42 7.68,2.13 11.73,2.13l85.66 0 0 10.99 -111.11 0 0 23.11 103.91 0c3.98,0 7.82,-0.71 11.55,-2.13 3.72,-1.41 7.01,-3.37 9.87,-5.87 2.85,-2.49 5.15,-5.47 6.89,-8.93 1.74,-3.45 2.61,-7.26 2.61,-11.43 0,-3.99 -0.81,-7.78 -2.43,-11.36 -1.61,-3.58 -3.8,-6.68 -6.57,-9.31 -2.78,-2.62 -6.07,-4.7 -9.87,-6.24 -3.81,-1.54 -7.91,-2.31 -12.29,-2.31z"/>
  <path class="fil1" d="M64.81 1579.69l0 269.52 123.33 0 0 -205.37 194.02 172.25c7.02,6.23 14.03,10.81 20.01,14.95 5.98,4.14 11.73,7.59 17.25,10.35 5.51,2.76 11.03,4.75 16.55,5.98 5.52,1.22 11.5,1.84 17.94,1.84 13.49,0 33.39,-2.53 43.81,-7.59 10.42,-5.06 19.24,-11.88 26.45,-20.47 7.2,-8.58 12.72,-18.7 16.55,-30.36 3.83,-11.64 5.75,-23.91 5.75,-36.79l0 -255.72 -123.32 0 0 205.37 -202.43 -172.25c-24.11,-20.52 -46.29,-33.12 -70.83,-33.12 -11.03,0 -21.61,2.22 -31.73,6.67 -10.12,4.44 -19.16,10.35 -27.14,17.71 -7.97,7.36 -14.33,15.94 -19.08,25.75 -4.76,9.81 -7.13,20.24 -7.13,31.28z"/>
  <path class="fil1" d="M708.33 1497.98c-17.32,-0.02 -33.46,2.52 -48.41,7.56 -14.96,5.03 -28.03,12.35 -39.2,21.96 -11.18,9.6 -20,21.33 -26.45,35.18 -6.46,13.86 -9.69,29.6 -9.69,47.24l0 126.57c0,16.69 3.39,31.88 10.16,45.58 6.77,13.7 15.82,25.51 27.16,35.43 11.33,9.91 24.4,17.63 39.2,23.14 14.8,5.51 30.23,8.25 46.29,8.26l319.16 0.31 0 -96.86 -311.76 0 0 -29.64 161.44 -0.53 54.52 -96.87 -215.43 0 0 -30.17 311.23 0 0 -96.86 -318.22 -0.3z"/>
  <path class="fil1" d="M1688.05 1883.59c-4.57,0 -8.84,0.67 -12.79,2 -3.95,1.33 -7.4,3.27 -10.35,5.8 -2.96,2.54 -5.29,5.64 -6.99,9.3 -1.71,3.66 -2.56,7.82 -2.56,12.48l0 33.45c0,4.41 0.89,8.42 2.68,12.04 1.79,3.62 4.18,6.74 7.18,9.36 2.99,2.62 6.45,4.66 10.35,6.11 3.91,1.46 7.99,2.18 12.23,2.19l84.33 0.08 0 -25.6 -82.37 0 0 -7.83 42.66 -0.14 14.4 -25.59 -56.92 0 0 -7.97 82.23 0 0 -25.59 -84.08 -0.09z"/>
 </g>
</svg>
