<?xml version="1.0" encoding="UTF-8"?>
<!DOCTYPE svg PUBLIC "-//W3C//DTD SVG 1.1//EN" "http://www.w3.org/Graphics/SVG/1.1/DTD/svg11.dtd">
<!-- Creator: CorelDRAW 2019 (64-Bit) -->
<svg xmlns="http://www.w3.org/2000/svg" xml:space="preserve" width="1024px" height="1024px" version="1.1" style="shape-rendering:geometricPrecision; text-rendering:geometricPrecision; image-rendering:optimizeQuality; fill-rule:evenodd; clip-rule:evenodd"
viewBox="0 0 969.22 969.22"
 xmlns:xlink="http://www.w3.org/1999/xlink"
 xmlns:xodm="http://www.corel.com/coreldraw/odm/2003">
 <defs>
  <style type="text/css">
   <![CDATA[
    .fil0 {fill:none}
    .fil2 {fill:black;fill-rule:nonzero}
    .fil1 {fill:#00A800;fill-rule:nonzero}
   ]]>
  </style>
 </defs>
 <g id="Layer_x0020_1">
  <metadata id="CorelCorpID_0Corel-Layer"/>
  <rect class="fil0" width="969.22" height="969.22"/>
  <g id="_2772686894128">
   <g>
    <polygon class="fil1" points="29.65,77.05 269.6,430.06 334.9,526.27 509.23,526.27 297.61,214.51 269.6,173.26 204.3,77.05 "/>
    <path class="fil1" d="M509.23 284.83l0 241.44 110.48 0 0 -183.97 173.81 154.3c6.29,5.59 12.57,9.69 17.93,13.4 5.35,3.7 10.5,6.79 15.45,9.27 4.94,2.47 9.89,4.26 14.83,5.35 4.94,1.1 10.3,1.65 16.07,1.65 12.09,0 29.91,-2.27 39.25,-6.8 9.33,-4.53 17.23,-10.64 23.69,-18.33 6.45,-7.69 11.39,-16.76 14.83,-27.2 3.43,-10.43 5.15,-21.42 5.15,-32.96l0 -229.08 -110.48 0 0 183.98 -181.34 -154.32c-21.6,-18.37 -41.47,-29.66 -63.45,-29.66 -9.89,0 -19.36,1.99 -28.43,5.97 -9.06,3.98 -17.17,9.27 -24.31,15.87 -7.14,6.59 -12.84,14.28 -17.09,23.07 -4.26,8.79 -6.39,18.13 -6.39,28.02z"/>
   </g>
   <polygon class="fil2" points="723.72,608.24 635.92,608.24 612.52,642.74 656.4,707.44 742.73,608.24 "/>
   <polygon class="fil2" points="482.28,834.55 570.13,834.55 593.54,800.06 549.59,735.38 463.28,834.55 "/>
   <polygon class="fil1" points="482.15,608.24 603.03,786.08 635.92,834.55 723.75,834.55 617.14,677.49 603.03,656.71 570.13,608.24 "/>
   <path class="fil2" d="M927.06 865.75l-38.1 0 0 -5.08 49.36 0 0 -10.2 -45.16 0c-1.9,0 -3.78,0.29 -5.63,0.87 -1.85,0.59 -3.5,1.43 -4.96,2.54 -1.45,1.11 -2.64,2.46 -3.56,4.06 -0.91,1.6 -1.37,3.41 -1.37,5.44 0,1.88 0.39,3.61 1.18,5.21 0.78,1.6 1.83,2.97 3.14,4.12 1.3,1.14 2.81,2.04 4.51,2.67 1.7,0.64 3.46,0.96 5.29,0.96l38.66 0 0 4.96 -50.14 0 0 10.43 46.89 0c1.79,0 3.53,-0.32 5.21,-0.96 1.68,-0.64 3.17,-1.52 4.45,-2.65 1.29,-1.12 2.33,-2.47 3.11,-4.03 0.79,-1.56 1.18,-3.27 1.18,-5.15 0,-1.81 -0.36,-3.52 -1.09,-5.13 -0.73,-1.62 -1.72,-3.02 -2.97,-4.2 -1.25,-1.19 -2.74,-2.13 -4.45,-2.82 -1.72,-0.7 -3.57,-1.04 -5.55,-1.04z"/>
   <path class="fil2" d="M820.77 892.01l0 -30.44 9.75 21.37c0.56,1.24 1.2,2.45 1.91,3.63 0.71,1.19 1.5,2.23 2.38,3.13 0.88,0.9 1.87,1.64 2.97,2.2 1.1,0.56 2.32,0.85 3.67,0.85 1.46,0 2.71,-0.24 3.75,-0.71 1.05,-0.47 1.97,-1.14 2.78,-2 0.8,-0.86 1.52,-1.89 2.15,-3.07 0.64,-1.19 1.29,-2.51 1.96,-3.98l9.92 -21.81 0 30.55 10.03 0 0 -29.99c0,-1.5 -0.24,-2.95 -0.73,-4.34 -0.48,-1.39 -1.18,-2.62 -2.07,-3.69 -0.9,-1.07 -1.98,-1.93 -3.25,-2.56 -1.27,-0.64 -2.69,-0.96 -4.26,-0.96 -2.47,0 -4.56,0.66 -6.27,1.97 -1.72,1.32 -3.03,3.23 -3.93,5.75l-10.25 24.41 -9.36 -23.17c-0.48,-1.24 -1.08,-2.4 -1.79,-3.49 -0.71,-1.09 -1.53,-2.04 -2.46,-2.85 -0.94,-0.81 -1.97,-1.45 -3.11,-1.92 -1.14,-0.47 -2.38,-0.7 -3.73,-0.7 -1.42,0 -2.74,0.27 -3.98,0.82 -1.23,0.54 -2.29,1.27 -3.19,2.19 -0.9,0.92 -1.61,2.01 -2.13,3.27 -0.52,1.26 -0.78,2.61 -0.78,4.03l0 31.23 10.02 0.28z"/>
   <polygon class="fil2" points="682.72,850.13 682.72,860.73 706.98,860.73 706.98,891.73 717.4,891.73 717.4,860.73 741.5,860.73 741.5,850.13 "/>
   <path class="fil2" d="M663.06 865.75l-38.1 0 0 -5.08 49.36 0 0 -10.2 -45.16 0c-1.9,0 -3.78,0.29 -5.63,0.87 -1.85,0.59 -3.5,1.43 -4.96,2.54 -1.45,1.11 -2.64,2.46 -3.56,4.06 -0.91,1.6 -1.37,3.41 -1.37,5.44 0,1.88 0.39,3.61 1.18,5.21 0.78,1.6 1.83,2.97 3.14,4.12 1.3,1.14 2.81,2.04 4.51,2.67 1.7,0.64 3.46,0.96 5.29,0.96l38.66 0 0 4.96 -50.15 0 0 10.43 46.9 0c1.79,0 3.53,-0.32 5.21,-0.96 1.68,-0.64 3.17,-1.52 4.45,-2.65 1.29,-1.12 2.33,-2.47 3.11,-4.03 0.79,-1.56 1.18,-3.27 1.18,-5.15 0,-1.81 -0.36,-3.52 -1.09,-5.13 -0.73,-1.62 -1.72,-3.02 -2.97,-4.2 -1.25,-1.19 -2.74,-2.13 -4.46,-2.82 -1.71,-0.7 -3.56,-1.04 -5.54,-1.04z"/>
   <polygon class="fil2" points="574.76,879.44 574.76,891.73 585.12,891.73 585.12,879.44 608.04,850.13 594.98,850.13 579.69,869.13 564.51,850.13 551.23,850.13 "/>
   <path class="fil2" d="M531.56 865.75l-38.1 0 0 -5.08 49.36 0 0 -10.2 -45.15 0c-1.91,0 -3.79,0.29 -5.64,0.87 -1.84,0.59 -3.5,1.43 -4.95,2.54 -1.46,1.11 -2.65,2.46 -3.56,4.06 -0.92,1.6 -1.37,3.41 -1.37,5.44 0,1.88 0.39,3.61 1.17,5.21 0.79,1.6 1.83,2.97 3.14,4.12 1.31,1.14 2.81,2.04 4.51,2.67 1.7,0.64 3.46,0.96 5.29,0.96l38.66 0 0 4.96 -50.14 0 0 10.43 46.89 0c1.8,0 3.53,-0.32 5.21,-0.96 1.68,-0.64 3.17,-1.52 4.46,-2.65 1.29,-1.12 2.32,-2.47 3.11,-4.03 0.78,-1.56 1.17,-3.27 1.17,-5.15 0,-1.81 -0.36,-3.52 -1.09,-5.13 -0.73,-1.62 -1.72,-3.02 -2.97,-4.2 -1.25,-1.19 -2.73,-2.13 -4.45,-2.82 -1.72,-0.7 -3.57,-1.04 -5.55,-1.04z"/>
   <path class="fil1" d="M723.75 712.91l0 121.64 55.65 0 0 -92.68 87.57 77.73c3.16,2.81 6.33,4.88 9.03,6.75 2.69,1.87 5.29,3.42 7.78,4.67 2.49,1.24 4.98,2.14 7.47,2.7 2.49,0.55 5.19,0.83 8.1,0.83 6.09,0 15.06,-1.14 19.77,-3.43 4.7,-2.28 8.68,-5.36 11.93,-9.23 3.26,-3.88 5.75,-8.44 7.48,-13.7 1.72,-5.26 2.59,-10.8 2.59,-16.61l0 -115.41 -55.66 0 0 92.69 -91.35 -77.74c-10.88,-9.26 -20.89,-14.95 -31.96,-14.95 -4.99,0 -9.76,1.01 -14.33,3.01 -4.56,2.01 -8.65,4.67 -12.24,8 -3.6,3.32 -6.47,7.19 -8.62,11.62 -2.14,4.43 -3.21,9.13 -3.21,14.11z"/>
   <path class="fil2" d="M29.25 712.91l0 121.64 55.66 0 0 -92.68 87.56 77.73c3.17,2.81 6.33,4.88 9.03,6.75 2.7,1.87 5.29,3.42 7.78,4.67 2.49,1.24 4.98,2.14 7.47,2.7 2.5,0.55 5.19,0.83 8.1,0.83 6.09,0 15.07,-1.14 19.77,-3.43 4.71,-2.28 8.68,-5.36 11.94,-9.23 3.25,-3.88 5.74,-8.44 7.47,-13.7 1.73,-5.26 2.59,-10.8 2.59,-16.61l0 -115.41 -55.65 0 0 92.69 -91.36 -77.74c-10.88,-9.26 -20.89,-14.95 -31.96,-14.95 -4.98,0 -9.76,1.01 -14.32,3.01 -4.57,2.01 -8.65,4.67 -12.25,8 -3.6,3.32 -6.47,7.19 -8.61,11.62 -2.15,4.43 -3.22,9.13 -3.22,14.11z"/>
   <path class="fil2" d="M319.67 676.04c-7.82,-0.01 -15.1,1.13 -21.85,3.41 -6.75,2.27 -12.65,5.58 -17.69,9.91 -5.05,4.33 -9.02,9.63 -11.94,15.88 -2.91,6.25 -4.37,13.36 -4.37,21.32l0 57.12c0,7.53 1.53,14.39 4.59,20.57 3.05,6.18 7.14,11.51 12.25,15.99 5.12,4.47 11.02,7.95 17.69,10.44 6.68,2.49 13.65,3.72 20.89,3.73l144.04 0.14 0 -43.72 -140.69 0 0 -13.37 72.85 -0.24 24.61 -43.72 -97.23 0 0 -13.61 140.46 0 0 -43.72 -143.61 -0.13z"/>
   <path class="fil2" d="M761.82 850.07c-2.07,-0.01 -3.99,0.3 -5.77,0.9 -1.79,0.6 -3.35,1.47 -4.68,2.62 -1.33,1.14 -2.38,2.54 -3.15,4.19 -0.77,1.65 -1.16,3.53 -1.16,5.63l0 15.1c0,1.99 0.41,3.8 1.21,5.43 0.81,1.64 1.89,3.04 3.24,4.23 1.35,1.18 2.91,2.1 4.68,2.76 1.76,0.65 3.6,0.98 5.52,0.98l38.05 0.04 0 -11.55 -37.17 0 0 -3.54 19.25 -0.06 6.5 -11.55 -25.69 0 0 -3.6 37.11 0 0 -11.55 -37.94 -0.03z"/>
  </g>
 </g>
</svg>
