<?xml version="1.0" encoding="UTF-8"?>
<!DOCTYPE svg PUBLIC "-//W3C//DTD SVG 1.1//EN" "http://www.w3.org/Graphics/SVG/1.1/DTD/svg11.dtd">
<!-- Creator: CorelDRAW 2019 (64-Bit) -->
<svg xmlns="http://www.w3.org/2000/svg" xml:space="preserve" width="2269px" height="2269px" version="1.1" style="shape-rendering:geometricPrecision; text-rendering:geometricPrecision; image-rendering:optimizeQuality; fill-rule:evenodd; clip-rule:evenodd"
viewBox="0 0 2147.61 2147.61"
 xmlns:xlink="http://www.w3.org/1999/xlink"
 xmlns:xodm="http://www.corel.com/coreldraw/odm/2003">
 <defs>
  <style type="text/css">
   <![CDATA[
    .fil0 {fill:none}
    .fil1 {fill:#00A800;fill-rule:nonzero}
   ]]>
  </style>
 </defs>
 <g id="Layer_x0020_1">
  <metadata id="CorelCorpID_0Corel-Layer"/>
  <rect class="fil0" width="2147.61" height="2147.61"/>
  <g id="_2774014540768">
   <polygon class="fil1" points="65.7,170.73 597.39,952.93 742.07,1166.12 1128.36,1166.12 659.44,475.32 597.39,383.92 452.7,170.73 "/>
   <path class="fil1" d="M1128.36 631.12l0 535 244.8 0 0 -407.65 385.15 341.92c13.93,12.36 27.84,21.45 39.71,29.67 11.87,8.22 23.28,15.06 34.24,20.54 10.95,5.48 21.91,9.44 32.86,11.87 10.96,2.44 22.82,3.65 35.61,3.65 26.78,0 66.27,-5.02 86.96,-15.06 20.69,-10.04 38.19,-23.58 52.5,-40.63 14.3,-17.04 25.25,-37.13 32.86,-60.26 7.61,-23.12 11.42,-47.47 11.42,-73.04l0 -507.6 -244.81 0 0 407.66 -401.81 -341.93c-47.86,-40.72 -91.9,-65.73 -140.59,-65.73 -21.92,0 -42.91,4.41 -63,13.23 -20.08,8.83 -38.04,20.55 -53.86,35.16 -15.83,14.6 -28.46,31.65 -37.89,51.12 -9.44,19.47 -14.15,40.17 -14.15,62.08z"/>
  </g>
  <polygon class="fil1" points="1068.35,1347.75 1336.2,1741.81 1409.09,1849.21 1603.69,1849.21 1367.46,1501.2 1336.2,1455.15 1263.31,1347.75 "/>
  <path class="fil1" d="M1603.69 1579.69l0 269.52 123.33 0 0 -205.37 194.02 172.25c7.02,6.23 14.03,10.81 20.01,14.95 5.98,4.14 11.73,7.59 17.25,10.35 5.52,2.76 11.04,4.75 16.55,5.98 5.52,1.22 11.5,1.84 17.94,1.84 13.5,0 33.39,-2.53 43.81,-7.59 10.43,-5.06 19.24,-11.88 26.45,-20.47 7.21,-8.58 12.72,-18.7 16.55,-30.36 3.84,-11.64 5.76,-23.91 5.76,-36.79l0 -255.72 -123.33 0 0 205.37 -202.42 -172.25c-24.11,-20.52 -46.3,-33.12 -70.83,-33.12 -11.04,0 -21.62,2.22 -31.74,6.67 -10.11,4.44 -19.16,10.35 -27.13,17.71 -7.98,7.36 -14.34,15.94 -19.09,25.75 -4.75,9.81 -7.13,20.24 -7.13,31.28z"/>
 </g>
</svg>
